<?xml version="1.0" encoding="UTF-8"?>
<!-- Created with Inkscape (http://www.inkscape.org/) -->
<svg width="170" height="210" enable-background="new" version="1.1" viewBox="0 0 170 210" xmlns="http://www.w3.org/2000/svg" xmlns:cc="http://creativecommons.org/ns#" xmlns:dc="http://purl.org/dc/elements/1.1/" xmlns:rdf="http://www.w3.org/1999/02/22-rdf-syntax-ns#" xmlns:xlink="http://www.w3.org/1999/xlink">
 <defs>
  <linearGradient id="linearGradient991">
   <stop stop-color="#f4e3d7" offset="0"/>
   <stop stop-color="#f4e3d7" stop-opacity="0" offset="1"/>
  </linearGradient>
  <linearGradient id="linearGradient1384">
   <stop stop-color="#ffb380" offset="0"/>
   <stop stop-color="#ffe6d5" offset="1"/>
  </linearGradient>
  <linearGradient id="linearGradient1378" x1="108.24" x2="143.72" y1="177.38" y2="205.1" gradientUnits="userSpaceOnUse">
   <stop stop-color="#a05a2c" offset="0"/>
   <stop stop-color="#e9c6af" offset="1"/>
  </linearGradient>
  <radialGradient id="radialGradient1386" cx="77.099" cy="91.037" r="8.1403" gradientTransform="matrix(-1.3445 .46666 -.93293 -2.6879 265.69 295.8)" gradientUnits="userSpaceOnUse" xlink:href="#linearGradient1384"/>
  <radialGradient id="radialGradient1394" cx="18.499" cy="145.1" r="2.6752" gradientTransform="matrix(2.3503 -1.1469 1.6554 3.3924 -266.55 -327.38)" gradientUnits="userSpaceOnUse">
   <stop stop-color="#c87137" offset="0"/>
   <stop stop-color="#6c5d53" stop-opacity="0" offset="1"/>
  </radialGradient>
  <radialGradient id="radialGradient1402" cx="16.426" cy="147.75" r="2.9358" gradientTransform="matrix(.98912 -.14712 .94788 6.3728 -139.87 -785.96)" gradientUnits="userSpaceOnUse">
   <stop offset="0"/>
   <stop stop-color="#28170b" offset="1"/>
  </radialGradient>
  <linearGradient id="linearGradient1414" x1="113.29" x2="104.28" y1="79.992" y2="87.708" gradientUnits="userSpaceOnUse">
   <stop stop-color="#e9c6af" offset="0"/>
   <stop stop-color="#502f16" offset="1"/>
  </linearGradient>
  <linearGradient id="linearGradient1505" x1="112.85" x2="109.86" y1="74.246" y2="77.944" gradientUnits="userSpaceOnUse">
   <stop stop-color="#f4e3d7" offset="0"/>
   <stop stop-color="#f4e3d7" stop-opacity="0" offset="1"/>
  </linearGradient>
  <linearGradient id="linearGradient1515" x1="83.189" x2="87.102" y1="94.596" y2="95.374" gradientUnits="userSpaceOnUse">
   <stop stop-color="#f4e3d7" offset="0"/>
   <stop stop-color="#f4e3d7" stop-opacity="0" offset="1"/>
  </linearGradient>
  <radialGradient id="radialGradient1523" cx="127.55" cy="148.07" r="8.496" gradientTransform="matrix(.72075 -.0041039 .0031883 .55995 35.512 62.529)" gradientUnits="userSpaceOnUse" xlink:href="#linearGradient1384"/>
  <radialGradient id="radialGradient22674" cx="341.68" cy="580.26" r="175.92" gradientTransform="matrix(-1.4413 .62376 -.53946 -1.2465 1182.6 1136.3)" gradientUnits="userSpaceOnUse">
   <stop stop-color="#e9c6af" offset="0"/>
   <stop stop-color="#e9c6af" offset=".76829"/>
   <stop stop-color="#d38d5f" offset="1"/>
  </radialGradient>
  <linearGradient id="linearGradient962" x1="79.192" x2="77.576" y1="174.65" y2="168.6" gradientTransform="translate(-6.1829 -10.82)" gradientUnits="userSpaceOnUse">
   <stop stop-color="#f4e3d7" offset="0"/>
   <stop stop-color="#f4e3d7" stop-opacity="0" offset="1"/>
  </linearGradient>
  <linearGradient id="linearGradient973" x1="61.107" x2="63.274" y1="206.75" y2="193.27" gradientUnits="userSpaceOnUse">
   <stop stop-color="#f4e3d7" offset="0"/>
   <stop stop-color="#f4e3d7" stop-opacity="0" offset="1"/>
  </linearGradient>
  <linearGradient id="linearGradient983" x1="113.27" x2="107.94" y1="197.53" y2="188.2" gradientTransform="rotate(11.738 56.123 161.17)" gradientUnits="userSpaceOnUse">
   <stop stop-color="#f4e3d7" offset="0"/>
   <stop stop-color="#f4e3d7" stop-opacity="0" offset="1"/>
  </linearGradient>
  <linearGradient id="linearGradient997" x1="142.55" x2="136.71" y1="219.35" y2="214.9" gradientTransform="matrix(.85689 -.51551 -.51551 -.85689 165.68 451.68)" gradientUnits="userSpaceOnUse" xlink:href="#linearGradient991"/>
  <linearGradient id="linearGradient1001" x1="143.63" x2="141.17" y1="219.46" y2="214.88" gradientTransform="matrix(.61317 -.78995 -.78995 -.61317 262.04 430.83)" gradientUnits="userSpaceOnUse" xlink:href="#linearGradient991"/>
  <linearGradient id="linearGradient1005" x1="142.73" x2="137.43" y1="217.99" y2="214.69" gradientTransform="matrix(-.083406 -1.1689 1.2554 -.59291 -91.928 497.01)" gradientUnits="userSpaceOnUse" xlink:href="#linearGradient991"/>
  <linearGradient id="linearGradient1015" x1="120.52" x2="119.52" y1="127.72" y2="120.42" gradientTransform="rotate(33.172 107.22 78.203)" gradientUnits="userSpaceOnUse">
   <stop stop-color="#f4e3d7" offset="0"/>
   <stop stop-color="#f4e3d7" stop-opacity="0" offset="1"/>
  </linearGradient>
  <filter id="filter1402" color-interpolation-filters="sRGB">
   <feBlend in2="BackgroundImage" mode="overlay"/>
  </filter>
 </defs>
 <metadata>
  <rdf:RDF>
   <cc:Work rdf:about="">
    <dc:format>image/svg+xml</dc:format>
    <dc:type rdf:resource="http://purl.org/dc/dcmitype/StillImage"/>
    <dc:title/>
    <cc:license rdf:resource="https://github.com/vyzo/gerbil#logo"/>
    <dc:creator>
     <cc:Agent>
      <dc:title>Brad Christensen</dc:title>
     </cc:Agent>
    </dc:creator>
   </cc:Work>
  </rdf:RDF>
 </metadata>
 <g transform="translate(-28.475 -34.64)">
  <path d="m118.76 159.57c-2.3939 0.0391-5.1304 1.9332-6.0703 4.0395-1.1828 2.6507 1.5454 5.596 2.3681 8.3795 2.5487 8.6227 4.8336 17.343 7.9555 25.775 1.4477 3.9102 2.7367 7.9609 4.9839 11.473 2.6978 4.2164 5.6919 8.6531 9.9986 11.204 3.6613 2.169 8.211 3.371 12.438 2.8788 5.5702-0.64866 10.869-3.7545 15.08-7.4583 3.4031-2.9934 4.9283-7.6103 7.5334-11.319 1.4703-2.0932 2.6027-4.2805 4.567-6.167-1.0466 0.19868-2.1601 0.59057-3.0719 1.1201 0.16705-0.77228 2.6662-1.9145 3.7054-3.1622 1.6307-1.9579 2.4569-3.3604 3.8288-6.6162-1.6406 0.91226-0.51499 0.0753-1.3426 0.6191 0.0872-0.3111 0.1693-0.62341 0.24124-0.9384 0.16111-0.70534 0.29609-1.4182 0.40817-2.1355 1.4473-2.4452 1.6058-4.4023 2.0195-8.3405-1.2111 0.58436-1.3397 1.5971-2.0424 2.497-0.0554-0.2028-0.11251-0.4025-0.17074-0.60669-0.2048-2.0073-0.11171-3.9858 1.0459-5.1476-0.96551 0.26792-2.2779 1.3255-3.4521 1.922-0.70584 0.35858-1.5189 0.58042-2.1568 0.99453-0.56652-0.97616-1.2724-1.9268-1.4766-3.1645-1.1529 2.3684-1.3185 3.5588-1.3038 5.5449-0.63279 0.85627-0.59512 1.4092-1.3736 2.0899 0.14269-1.2219-0.42067-2.4781-0.81794-3.3517-2.1488 5.0314-2.0693 6.1343-2.0919 9.1456-0.0142 1.8992-0.15465 4.0553-1.1348 5.5836-7.5e-4 -1.1017-0.32022-0.44914-0.55645-1.6297-1.4499 4.0847-0.13478 5.8088-1.2108 8.439-1.9437 4.7512-4.756 9.7102-9.1246 12.406-3.5517 2.1917-8.364 3.3709-12.342 2.1078-4.6703-1.483-7.8219-6.2191-10.408-10.381-2.8003-4.506-3.4774-10.026-5.0879-15.081-1.9424-6.0969-3.6234-12.274-5.5161-18.387-1.2466-4.0258 0.0312-10.391-3.8457-12.044-0.48966-0.20869-1.0241-0.29871-1.5765-0.28967z" fill="url(#linearGradient1378)" stroke="#000" stroke-linecap="round" stroke-width=".99213"/>
 </g>
 <g transform="translate(-28.475 -34.64)">
  <path d="m136.8 117.84c0.32457 3.1034-3.1385 6.0748-7.1223 6.0748s-7.2134-3.2295-7.2134-7.2134 3.9882-10.217 7.5322-8.3974c4.2571 2.186 6.3696 5.3872 6.8035 9.536z"/>
  <g fill="#e9c6af" stroke="#000" stroke-linecap="round" stroke-width=".99213">
   <path d="m119.01 200.08s1.0905 8.9974 3.279 12.023c2.1885 3.0255 1.0778-0.72383 5.1998 4.199 0.66084 3.2833 1.5323 1.6897-1.4533 4.6719-5.5359 1.1606-9.3806 2.106-15.392 1.0046-3.097-1.6479-1.2043-3.3389-0.9143-5.0122 0.24779-1.4299 1.889-2.3479 2.1768-3.7702 0.38833-1.9193-0.72865-5.8293-0.72865-5.8293"/>
   <path d="m117.37 219.09s-1.8503-0.46872-2.3007 2.0745c-0.45036 2.5432 2.048 3.0766-1.5723 2.7042-2.423-0.24925-4.1693-1.1362-3.0844-4.0098s1.5124-4.5748 1.5124-4.5748"/>
   <path d="m121.9 218.58s0.95713 1.8046 1.6033 2.5866c0.52119 0.63073 1.0146 1.4523 1.8052 1.6633 0.87999 0.23488 2.2101 0.18527 2.6648-0.60389 1.3944-2.4198 2.8684-3.9095-2.4955-7.9982"/>
   <path d="m123.58 216.55c2.3625 1.7228 1.907 3.2879 2.4848 4.0804 1.1258 3.031-0.10029 4.2104-2.4748 4.1978-3.2266-0.0172-4.0412-0.33911-3.4117-2.9277 0.62948-2.5886-1.473-2.6186-0.0849-5.5063"/>
   <path d="m120.47 215.98c1.6936 4.8617-0.33761 3.0768 0.52439 5.8029 0.4066 2.4529-0.36238 3.494-3.2892 3.4154-2.1743-0.0584-2.3722 0.0326-2.7896-4.5305 0.25526-1.8319 0.66987-3.1863 2.5595-5.7366"/>
  </g>
  <g transform="rotate(-5.0056 155.28 99.302)" fill="#fff" aria-label="λ">
   <path d="m130.99 109.59c-0.17626 0.22944-5.6e-4 0.54741 0.21679 0.67773 0.50824 0.48087 0.65388 1.1967 0.82446 1.8461 0.18417 0.97961-0.18391 1.954-0.62619 2.8125-0.56023 1.1867-1.1205 2.3734-1.6807 3.5601-0.25801 0.11743-0.0905 0.59221 0.1875 0.50977 0.51682-0.0336 0.91552-0.47932 1.0508-0.95508 0.49538-1.0334 1.0024-2.0616 1.543-3.0723 0.32209-0.14109 0.66634 0.14151 0.75391 0.44532 0.24702 0.50909 0.44497 1.0537 0.74609 1.5293 0.2172-0.21289 0.0345-0.52547-0.0183-0.76947-0.41607-1.7611-0.60873-3.61-1.4524-5.2383-0.309-0.61457-0.80568-1.2253-1.5195-1.3516z" fill="#fff" stroke-width=".2625"/>
  </g>
  <path d="m125.61 224.72c-0.23716 1.7964-1.265 3.1424-2.2957 3.0063-1.0307-0.13608 0.26584-2.0558-1.4369-3.4991 0.16503-1.25 1.265-3.1424 2.2957-3.0063 1.0307 0.13607 1.6741 1.7027 1.4369 3.4991z"/>
  <path d="m129.39 222.47c-0.18332 1.3885-0.97778 2.4289-1.7745 2.3237-0.7967-0.10518 0.70261-0.99406-1.1106-2.7046 0.18331-1.3885 0.97777-2.4289 1.7745-2.3237 0.79671 0.10517 1.294 1.3161 1.1106 2.7046z"/>
  <path d="m120.02 224.25c-1.4042 1.5105-0.46937 3.3548-1.5025 3.4714-1.0331 0.11665-2.0354-1.2484-2.2388-3.049s0.46937-3.3548 1.5025-3.4714c1.0331-0.11666 2.0973 1.7961 2.2388 3.049z"/>
  <path d="m114.04 223.24c-1.28 1.3031-0.36098 2.7636-1.2101 2.8673-0.84909 0.10371-1.2693-1.2002-1.8648-2.4917-0.18079-1.4798 0.36097-2.7636 1.2101-2.8673 0.8491-0.10373 1.684 1.0118 1.8648 2.4917z"/>
 </g>
 <g transform="translate(-28.475 -34.64)" stroke="#000" stroke-width=".99213">
  <path d="m102.15 95.581c-3.0381-2.855 2.2355-8.2899 3.0057-12.387 0.66952-3.5616-0.0461-8.1964 1.3662-11.203 2.5053-2.1871 4.7958-1.8945 6.4213-1.0475 4.4578 2.3229 5.0313 6.6572 5.8748 10.611 0.74385 3.4867 0.20389 7.5487-0.91082 10.657-0.93297 2.6013-0.77516 6.4863-3.279 7.2866-4.7143 1.5069-8.7577-0.42001-12.478-3.9166z" fill="url(#linearGradient1414)"/>
  <path d="m117.74 77.099c-0.74314-2.9339-1.4236-4.9428-3.027-6.6738-0.0369 0.77588-0.17938 0.83053-0.90167 1.2637-0.75906-2.2321-1.9884-2.4411-5.5052-3.2091 0.0613 0.61411 1.5891 2.0248 1.4475 2.5454" fill="#e9c6af" stroke-linecap="round"/>
 </g>
 <g transform="translate(-28.475 -34.64)" stroke="#000" stroke-linecap="round">
  <path transform="scale(.2625)" d="m402.6 344.45c-0.74843-0.0126-1.4766-3e-3 -2.1836 0.0273-49.23 2.4538-92.511 16.082-133.73 71.691-0.19607 15.963-16.02 33.155-19.334 59.307l-1.2793-3.9609c0.51909 2.3574 0.82755 4.5947 0.97851 6.7344-0.24601 2.7395-0.33983 5.5826-0.27344 8.5234-1.788 12.9-9.3391 21.637-11.873 29.863 6.5394-1.659 12.592-6.2788 14.006-12.066 8.0291 12.034 7.4742 19.573 2.8223 33.736 5.622-4.0649 8.7837-5.2279 10.16-11.031 6.6531 13.672 9.591 27.883-7.6211 47.477-3.0558 3.4786-5.7714 6.8099-8.2305 10.033-16.381 19.169-19.105 30.029-22.107 47.654-0.68026 3.9937 0.0202 8.2698 1.418 12.072 1.1246 3.0592 3.6635 6.8936 5.4199 8.1367-2.0728-5.8922-1.1514-11.507 0.77735-16.01 4.8636 11.667 16.362 21.136 31.271 30.305-15.422 0.15362-41.712 36.036-57.902 68.629-12.965 22.647-23.363 24.071-25.43 35.943l11.369-5.6113c-0.92648 11.471-3.3249 15.165-2.0273 29.537 1.6062-3.6366 2.9582-6.1105 4.2051-8.1016 16.494 40.052 74.908 68.478 143.1 66.602 67.554 0.78112 117.7-16.143 127.21-74.268 0.16716-1.0215 0.32094-2.0584 0.46289-3.1055 1.0146 1.9063 2.0932 4.3808 4.4961 7.8848 3.274-7.5224 1.5864-10.402 1.2949-15.617-0.49514-8.8636-3.868-23.465-5.8613-31.504-0.40002-3.558-0.89478-7.2127-1.4941-10.973-0.0375-15.345-0.79818-39.017 11.092-59.803 9.3259-15.462 21.265-21.08 21.295-46.303-0.0167-12.687-13.221-21.547-20.928-31.625 18.41-4.9413 18.573 3.8187 32.285-14.236 33.907-11.945 22.457-70.456-4.5957-137.53 0.0123-21.268 12.752-24.232-10.309-47.83-22.801-23.333-65.285-44.197-88.486-44.586z" fill="url(#radialGradient22674)" stroke-opacity=".99587" stroke-width="3.7795"/>
  <path d="m73.278 159.38s2.992-2.4603 4.795-3.0286c2.178-0.68644 6.843-0.32393 6.843-0.32393 2.1263-3.5043 4.4301-1.4525 6.5636-2.4234" fill="none" stroke-width=".99213"/>
  <path d="m121.98 181.15c-1.0434 6.0928-1.5663 8.5055 0.22179 11.911 0.78296 1.4911 2.1955 2.9095 3.2172 3.8958-1.7592 0.0116-2.8855 0.16937-5.1006-2.3226" fill="#e9c6af" stroke-width=".99213"/>
 </g>
 <g transform="translate(-28.475 -34.64)">
  <g fill="#e9c6af" stroke="#000" stroke-width=".99213">
   <path d="m55.898 213.41c-0.84926-0.26969-0.633-0.22569-1.3195-0.16268 0 0-5.812 1.9979-7.4825 4.4814-1.2905 1.9186 1.2234 3.4288 2.5393 4.5724 1.0758 0.93495 2.5938 1.2529 3.9909 1.5347 1.5501 0.31258 3.173 0.34626 4.7417 0.14634 1.2513-0.15948 2.7174-0.19334 3.6323-1.0618 1.1431-1.085 1.9048-2.5388 1.5614-4.463" stroke-linecap="round"/>
   <path d="m57.877 218.51s1.4262-0.22996 1.8765 2.3133c0.45036 2.5432-0.14246 3.7396 3.4778 3.3672 2.423-0.24925 1.8507-1.265 2.1827-4.203-0.50523-1.0702-1.9632-2.1918-1.9632-2.1918" stroke-linecap="round"/>
   <path d="m53.672 219.36s-0.95713 1.8046-1.6033 2.5866c-0.52119 0.63073-1.0146 1.4523-1.8052 1.6633-0.87999 0.23488-2.1522 0.14895-2.6648-0.60389-1.2977-1.9058-2.1246-4.938 1.0495-6.8369" stroke-linecap="square"/>
   <path d="m52.891 216.24c-2.6201 1.2075-1.4562 2.1286-2.6136 4.7888-1.1259 3.031-0.22906 4.5818 2.0884 5.0994 2.5181 0.56246 4.4276-1.2408 3.7982-3.8294s1.473-2.6186 0.08495-5.5063" stroke-linecap="round"/>
   <path d="m56.255 216.37c-1.6936 4.8617 0.33761 3.0768-0.52439 5.8029-0.4066 2.4529 0.12575 4.418 3.0316 4.0594 2.5608-0.31604 3.9401-1.4754 2.6829-5.2656-0.89284-2.3328 0.2097-1.3563-1.6799-3.9066" stroke-linecap="round"/>
  </g>
  <path d="m54.821 225.67c-1.9383 1.6658-0.068 3.6845-1.1451 3.9335-1.0771 0.24902-2.3108-1.1083-2.7554-3.0317-0.44468-1.9234 0.068-3.6845 1.1451-3.9335 1.0771-0.24902 2.3108 1.1083 2.7554 3.0317z"/>
  <path d="m61.101 226.03c-0.28399 2.1511-1.5148 3.7628-2.749 3.5999-1.2342-0.16295 0.59361-2.6931-1.7206-4.19 0.19761-1.4968 1.5148-3.7628 2.749-3.5999 1.2342 0.16294 2.0046 2.0388 1.7206 4.19z"/>
  <path d="m49.54 222.99c-1.5807 1.3298-0.46313 2.5671-1.2439 2.6196-0.78078 0.0525-1.4897-1.0352-1.5835-2.4294-0.09379-1.3942 0.46313-2.5671 1.2439-2.6196s1.4897 1.0352 1.5835 2.4294z"/>
  <path d="m64.91 224.15c-0.16666 1.3874-1.0089 2.6937-1.7086 2.3432-0.42222-0.21157 0.3255-2.2366-1.105-2.6811 0.11528-0.95974 0.9316-2.4365 1.7086-2.3432 0.77696 0.0933 1.2717 1.2937 1.105 2.6811z"/>
 </g>
 <g transform="translate(-28.475 -34.64)">
  <path d="m131.64 141.82c0.63508-2.7717-1.6986-3.6293-6.3117-2.7862-4.4685 0.81673-4.066 1.1096-4.6372 2.6574-0.77902 2.1109 0.51335 3.8924 1.8678 5.088 1.7842 1.575 4.5789 1.7298 6.9558 1.6101 2.1291-0.10724 4.5148-0.58618 6.0541-2.061 1.1975-1.1474 2.1616-3.1725 1.8034-4.6372-0.55756-2.2793-0.50327-2.056-1.8678-2.5285-2.2904-0.79315-3.076 0.14185-3.8643 2.6574z" fill="url(#radialGradient1523)"/>
 </g>
 <g transform="translate(-28.475 -34.64)">
  <path d="m109.01 116.53c-0.25112 1.1483-2.4252 5.241-10.594 6.6162-5.0642 0.0169-6.3252-4.7982-6.5192-7.5864-0.2946-4.2332 5.0893-7.1984 7.1984-7.2954 4.239-0.195 10.772 4.3483 9.9149 8.2656z"/>
  <g transform="matrix(1.0652 0 0 1.0652 -6.5485 -7.5396)" fill="#fff" aria-label="λ">
   <path d="m97.625 110.29c-0.70334 0.0999-1.258 0.63919-1.6185 1.221-0.17878 0.46143 0.35192 0.98238 0.81535 0.83159 0.25217-0.0887 0.49939-0.32141 0.78554-0.22053 0.23222 0.15839 0.31357 0.45842 0.39453 0.71485 0.13533 0.47009 0.24525 0.94034 0.35156 1.4219-0.05125 0.19767-0.18026 0.37059-0.23438 0.58008-0.09111 0.24121-0.21027 0.53611-0.31218 0.79799-0.61751 1.5775-1.2122 3.1654-1.7855 4.7586 0.1114 0.35869 0.55727 0.46793 0.88672 0.38477 0.31354-0.0519 0.66407 0.0169 0.94141-0.17188 0.5902-0.9538 1.1321-1.9365 1.6602-2.9258 0.40151 0.94064 0.8073 1.8975 1.4587 2.697 0.35499 0.38314 0.95914 0.59225 1.4504 0.34601 0.47134-0.21452 0.8122-0.63909 1.0671-1.0761 0.15557-0.41532-0.40539-0.86758-0.77309-0.60365-0.14929 0.10646-0.25778 0.31707-0.46875 0.30078-0.17044 0.0429-0.22743-0.16756-0.25616-0.292-0.1539-0.51319-0.16579-1.0664-0.30093-1.5913-0.36755-2.0103-0.92749-4.0037-1.8619-5.8279-0.37182-0.66649-0.99846-1.2663-1.787-1.3495-0.13721-0.0151-0.27633-0.0151-0.41312 4e-3z" fill="#fff" stroke-width=".2625"/>
  </g>
  <path d="m135.99 141.71c-0.99898 0.0986-2.5805 1.0159-3.01 1.4287-3.0459 2.927 1.5368 1.8645-2.9906 3.2033-3.6482-0.24027-0.0955-0.61595-0.65054-2.4904-0.17557-0.46977-3.2188-1.5167-4.7293-0.14681-0.69364 0.62909-0.53337 1.6969-0.21793 2.2346 0.36852 0.62821 1.4286 0.5291 2.1989 0.70333 0.55612 0.12577 1.3175 0.1962 1.6374 0.43385 0.30267 0.51674 0.22592 1.5179 0.1223 2.1374-0.12644 0.67189-0.28187 0.92155-0.89502 1.8455 0.29971 0.79138 0.57088 0.83379 1.2997 0.14331 0.19147-1.0559 0.0534-1.3675 0.3629-1.9527 0.57806-1.0931 2.0583-2.3351 2.6329-2.6133 0.48507-0.23486 0.99602-0.34616 1.362-0.52761 0.85589-0.42436 1.642-1.0402 2.2709-1.7648 0.63361-0.73014 1.7167-1.8866 1.3476-2.4111-0.13938-0.19812-0.40784-0.25622-0.74081-0.22334z"/>
  <path d="m118.5 140.53c-0.58489-1.6033-0.96556-2.1718-1.8132-2.5813-1.0961-0.52948-3.5081-0.75727-3.5081-0.75727 1.5951-1.105 2.5379-1.3106 3.496-1.1478 0 0-1.6884-2.1562-2.8595-2.7901-2.6841-1.4529-3.574-0.39243-6.0612 0.14898 0.94274-1.3675 1.2971-2.3693 3.0135-2.6784" fill="none" stroke="#000" stroke-linecap="round" stroke-width=".99213"/>
 </g>
 <g transform="translate(-28.475 -34.64)">
  <g transform="matrix(-3.4511 -1.6375 -1.6375 3.4511 380.51 -291.19)" fill="url(#radialGradient1402)" aria-label=")">
   <path d="m19.517 145.88c0-1.134-0.1008-6.9552-5.3424-11.491-0.252 0.0504-0.4536 0.2268-0.5292 0.4284 0.8316 0.9576 3.78 4.4352 3.78 11.063s-2.9736 10.105-3.78 11.012c0.0756 0.2772 0.2268 0.4536 0.5292 0.4536 2.9988-2.5704 5.3424-6.7788 5.3424-11.466z" fill="url(#radialGradient1402)" stroke-width=".2625"/>
  </g>
  <g transform="matrix(-3.4511 -1.6375 -1.6375 3.4511 380.51 -291.19)" fill="url(#radialGradient1394)" aria-label=")">
   <path d="m19.342 145.7c0.05454-1.1327-0.21158-6.6383-5.1549-11.191-0.252 0.0504-0.11442 0.12381-0.19002 0.32541 2.1351 2.1039 3.5025 5.9241 3.7103 9.2351 0.26803 4.2704-0.18695 7.569-3.2585 12.416 0.0756 0.2772-0.09655 0.0608 0.20585 0.0608 4.2727-4.6014 4.5668-8.3435 4.6873-10.846z" fill="url(#radialGradient1394)" stroke-width=".2625"/>
  </g>
 </g>
 <g transform="translate(-28.475 -34.64)" filter="url(#filter1402)">
  <path d="m76.407 193.23s2.9077-9.0475 4.8395-12.325c1.9318-3.2779 7.3883-10.929 7.3883-10.929" fill="none"/>
  <g transform="translate(-.45084 -.32203)" fill="#fff" stroke-width=".2625" aria-label="cons.io">
   <g stroke-width=".2625">
    <path d="m78.277 186.88q-0.15588 0.41925-0.45008 0.68627-0.292 0.2611-0.72247 0.31614-0.42827 0.0491-0.98925-0.15945-0.5846-0.21736-0.87826-0.54835t-0.34196-0.72534q-0.0461-0.40026 0.11198-0.82542 0.09002-0.24211 0.22659-0.44674 0.13067-0.20683 0.25422-0.32221l0.37179 0.31972q-0.10584 0.12196-0.22334 0.29335-0.1175 0.1714-0.17897 0.33674-0.3469 0.933 0.85183 1.3787 0.57279 0.21297 0.96328 0.10275 0.38678-0.11833 0.55364-0.56711 0.0966-0.25982 0.11591-0.47445 0.0215-0.22053 0.0062-0.41441l0.46059 0.17125q0.02339 0.19017-0.0077 0.40041-0.02302 0.20652-0.12401 0.47816z"/>
    <path d="m78.306 181.77q0.77187 0.32603 1.0288 0.89962 0.25942 0.56778-0.02248 1.2352-0.17404 0.41205-0.49703 0.6586-0.32634 0.2383-0.7646 0.27203-0.44406 0.0313-0.96058-0.18689-0.77187-0.32602-1.0255-0.89136-0.25362-0.56533 0.02829-1.2327 0.17895-0.42365 0.50529-0.66195 0.32299-0.24656 0.7588-0.27449 0.43246-0.0362 0.94897 0.18199zm-0.99279 2.3504q0.55134 0.23288 0.96703 0.15542 0.41234-0.0857 0.61335-0.5616 0.19856-0.47008-0.02748-0.82544-0.23185-0.35781-0.78318-0.59069-0.55134-0.23287-0.95788-0.14471-0.40654 0.0882-0.60755 0.56405-0.20101 0.47589 0.02168 0.82299 0.22269 0.34711 0.77403 0.57998z"/>
    <path d="m78.067 178.76q0.29895-0.52575 0.70894-0.64774 0.40451-0.1251 0.97407 0.19876l1.9113 1.0868-0.27092 0.47646-1.8785-1.0681q-0.70647-0.40172-1.0802 0.25546-0.27715 0.48742-0.1092 0.82932 0.16795 0.34191 0.68274 0.63463l1.5225 0.86572-0.27404 0.48193-2.9354-1.6691 0.2211-0.38884 0.44027 0.15613 0.01557-0.0274q-0.14905-0.27318-0.11533-0.58738 0.02824-0.31732 0.18706-0.59662z"/>
    <path d="m82.651 176.14q0.4097 0.27134 0.41803 0.71513 0.0083 0.44379-0.33257 0.95854-0.1948 0.29414-0.3847 0.47818-0.18642 0.1788-0.3783 0.28597l-0.4202-0.2783q0.19536-0.11242 0.42543-0.30008 0.2283-0.19639 0.3918-0.44326 0.23307-0.35192 0.22713-0.58255-0.0112-0.2341-0.20029-0.35934-0.10505-0.0696-0.22736-0.0675-0.1223 2e-3 -0.30723 0.0988-0.18144 0.0914-0.47086 0.30022-0.28594 0.20356-0.5197 0.32833t-0.4504 0.13242q-0.21664 8e-3 -0.44775-0.14542-0.35717-0.23655-0.36019-0.65414 4.63e-4 -0.42286 0.31354-0.89558 0.17046-0.25737 0.36908-0.44319 0.19686-0.19455 0.41486-0.32976l0.26332 0.40108q-0.19181 0.12989-0.37305 0.28944-0.18124 0.15956-0.3169 0.36441-0.18785 0.28363-0.19418 0.49857-0.0081 0.20621 0.14946 0.31057 0.11556 0.0765 0.24482 0.0639 0.12401-0.0161 0.30716-0.1215 0.18137-0.11413 0.46384-0.31243 0.27721-0.20179 0.50749-0.3213 0.23028-0.11952 0.4487-0.11844 0.21316-2e-3 0.43902 0.14719z"/>
   </g>
   <path d="m83.101 175.55q-0.23948-0.16319-0.2445-0.3572-0.01022-0.19756 0.11749-0.38498 0.12417-0.18222 0.31178-0.24496 0.1824-0.0663 0.42188 0.0969 0.22907 0.1561 0.2445 0.35721 0.01022 0.19756-0.11394 0.37977-0.12772 0.18743-0.31533 0.25017-0.19282 0.0592-0.42188-0.0969z"/>
   <path d="m81.446 171.77q0.07153-0.10373 0.19779-0.13145 0.12465-0.0365 0.27505 0.0672 0.14522 0.10014 0.1606 0.23319 0.01896 0.12787-0.05257 0.2316-0.07868 0.1141-0.20494 0.14183-0.12626 0.0277-0.27148-0.0724-0.1504-0.10372-0.16418-0.22801-0.01896-0.12787 0.05972-0.24197zm1.1963 0.49586 2.7799 1.917-0.31473 0.4564-2.7799-1.917z" stroke-width=".2625"/>
   <path d="m86.106 169.63q0.68607 0.48102 0.8167 1.0958 0.13425 0.60963-0.28168 1.2028-0.25679 0.36625-0.62439 0.53939-0.36915 0.16436-0.8047 0.1052-0.44072-0.0628-0.89982-0.38467-0.68607-0.48102-0.81516-1.087t0.28683-1.1992q0.26402-0.37656 0.63317-0.54093 0.3676-0.17313 0.79955-0.10881 0.4304 0.0556 0.8895 0.37744zm-1.4648 2.0892q0.49005 0.34359 0.91274 0.35526 0.42115 3e-3 0.71772-0.42009 0.29295-0.41784 0.14667-0.81277-0.15144-0.39856-0.64149-0.74215-0.49005-0.34358-0.90604-0.34287-0.41599 7.2e-4 -0.71256 0.42371-0.29657 0.423-0.15183 0.80916t0.63479 0.72975z" stroke-width=".2625"/>
  </g>
 </g>
 <g transform="translate(-28.475 -34.64)">
  <path d="m93.035 161.75-0.28274-0.48158c-1.3754-2.3426-3.2343-3.9243-4.1681-3.5464l-0.63382 0.25654c-0.93378 0.37795-0.57828 2.5682 0.79708 4.9108l0.28274 0.48158c1.3754 2.3426 3.2343 3.9243 4.1681 3.5464l0.63382-0.25655c0.93378-0.37795 0.57828-2.5682-0.79708-4.9108z" fill="#e9c6af" stroke="#000" stroke-linecap="round" stroke-linejoin="round" stroke-width=".77828"/>
  <path d="m93.861 165.33c-0.63491-1.5145-2.3658-1.7636-2.7051-1.4146-0.33935 0.34893 0.33993 1.56 1.5172 2.7049 1.1773 1.1449 1.5051 1.1462 2.7461 1.4413-1.2708-0.79977-0.89705-1.1545-1.5582-2.7316z" stroke="#000" stroke-linecap="round" stroke-linejoin="round" stroke-width=".79859"/>
  <path d="m91.239 161.32c-0.2635-0.40985-0.68743-0.85871-0.92037-1.531-0.28414-0.82009-0.95654-1.1366-1.3307-1.0429l-0.38343 0.096c-0.37412 0.0937-0.19568 0.68732 0.24718 1.4583 0.25877 0.45048 0.27415 0.95849 0.65321 1.4539 0.55216 0.72161 1.1006 1.3162 1.4747 1.2225l0.38343-0.096c0.37414-0.0937 0.36055-0.80696-0.12407-1.5607z" fill="#f4e3d7"/>
  <path d="m103.38 157.09c-1.446-1.1604-2.8499-3.1536-3.5008-4.0609-0.83188-1.1597-3.1817-2.4207-4.1888-1.7948l-6.3766 3.9626c-1.0071 0.62586-0.30088 2.9224 1.5835 5.1491l2.0195 2.3864c1.8844 2.2268 4.2122 3.5156 5.2193 2.8897l6.3766-3.9626c1.0071-0.62585 1.1424-2.7437-1.1326-4.5694z" fill="#e9c6af" stroke="#000" stroke-linecap="round" stroke-linejoin="round" stroke-width=".83574"/>
  <path d="m90.518 158.21c0.4405 0.46894 1.072 0.94168 1.5751 1.7711 0.61366 1.0117 1.4703 1.2323 1.848 0.99405l0.38709-0.2442c0.3777-0.23827-0.03652-0.97882-0.80697-1.8769-0.45019-0.52474-0.65342-1.1999-1.2526-1.7485-0.87274-0.79902-1.6948-1.4292-2.0725-1.1909l-0.38709 0.2442c-0.37771 0.23828-0.10119 1.1887 0.70895 2.0511z" fill="#f4e3d7"/>
  <path d="m97.883 164.14c-0.66375-1.5021-2.6769-1.3534-2.9517-0.95171-0.27485 0.4017 0.60106 1.4791 1.9564 2.4064 1.3553 0.92732 2.6769 1.3534 2.9517 0.95172 0.27484-0.40171-1.2073-0.71119-1.9564-2.4064z" stroke="#000" stroke-linecap="round" stroke-linejoin="round" stroke-width=".79859"/>
  <path d="m97.428 154.88c0.37512 0.52271 0.93909 1.0743 1.3289 1.9625 0.47553 1.0835 1.2958 1.4147 1.7015 1.2281l0.4158-0.19126c0.40571-0.18663 0.0923-0.97515-0.55358-1.9666-0.3774-0.5793-0.49023-1.2753-1.0122-1.8978-0.76029-0.90668-1.4925-1.6393-1.8982-1.4527l-0.4158 0.19127c-0.40572 0.18663-0.25637 1.1651 0.43353 2.1264z" fill="#f4e3d7"/>
  <g stroke="#000" stroke-linecap="round" stroke-linejoin="round" stroke-width=".88048">
   <path d="m100.39 158.85c-1.1358-1.2257-2.7676-2.4646-4.0597-4.6275-1.576-2.6384-3.797-3.2265-4.7821-2.6142l-1.0097 0.62743c-0.98517 0.61221 0.07758 2.5429 2.0628 4.8888 1.16 1.3708 1.676 3.128 3.2224 4.5631 2.2526 2.0906 4.3766 3.7417 5.3618 3.1295l1.0096-0.62742c0.98517-0.61222 0.28368-3.0855-1.8052-5.3396z" fill="#e9c6af"/>
   <path d="m101.75 162.76c-1.0454-1.4783-2.7712-1.8049-3.1207-1.3977-0.34949 0.40724 0.24637 2.0415 1.8551 2.8724 1.6569 0.85582 2.7712 1.8049 3.1207 1.3977s-0.76397-1.3295-1.8551-2.8724z"/>
   <path d="m104.84 160.8c-0.98617-1.5185-2.1505-2.5125-2.6005-2.2202-0.45007 0.29229-0.77924 2.8139 0.97071 3.2787 1.8435 0.48965 2.1505 2.5125 2.6005 2.2202 0.45006-0.29229 0.0155-1.7602-0.97071-3.2787z"/>
  </g>
  <path d="m96.425 156.09c-0.56411-0.60873-1.3745-1.224-2.0162-2.2983-0.78273-1.3104-1.8858-1.6024-2.375-1.2984l-0.50144 0.31162c-0.48928 0.30405 0.03853 1.2629 1.0245 2.428 0.57612 0.6808 0.83237 1.5535 1.6004 2.2663 1.1188 1.0383 2.1736 1.8583 2.6629 1.5543l0.50144-0.31161c0.48929-0.30406 0.14089-1.5324-0.89656-2.6519z" fill="#f4e3d7"/>
  <g stroke="#000" stroke-linecap="round" stroke-linejoin="round">
   <path d="m128.87 172.32 0.61735-0.13433c3.003-0.65345 4.5963 2e-5 4.9983 1.0664l0.2729 0.72381c0.40204 1.0664-0.7727 1.9074-2.1171 2.0257-1.3589 0.11953-2.2914 0.40803-3.7028 1.1743s-4.0886 0.0387-4.4906-1.0277l-0.2729-0.72382c-0.40205-1.0664 1.6918-2.4509 4.6948-3.1044z" fill="#e9c6af" stroke-width=".88048"/>
   <path d="m124.94 174.53c1.4803-0.71104 2.9478 0.55501 2.9214 1.041-0.0264 0.48601-1.377 0.80793-3.0169 0.71899-1.6398-0.0889-2.9478-0.55501-2.9214-1.041s1.4923 0.0133 3.0169-0.71898z" stroke-width=".79859"/>
   <path d="m126.26 162.24c1.1478 0.47927 2.6194 1.3199 3.6933 1.5621 3.6344 0.81952 5.2895 0.65919 5.477 1.9559l0.90571 6.264c0.17875 1.2364-1.8221 1.9925-5.071 1.7069-0.90517-0.0796-2.3991 0.53319-3.5535 0.86505-2.9536 0.84911-5.6599-1.1731-5.8032-2.4141l-0.90686-7.8572c-0.14323-1.241 2.4225-3.2668 5.2585-2.0826z" fill="#e9c6af" stroke-width=".88048"/>
   <path d="m122.95 171.17c1.5892-0.41402 2.7243 1.2552 2.5806 1.7202-0.14376 0.46502-1.5322 0.44881-3.1011-0.0362-1.569-0.48502-2.7243-1.2552-2.5806-1.7202 0.14375-0.46503 1.3076 0.50345 3.1012 0.0362z" stroke-width=".79859"/>
  </g>
  <path d="m126.67 167.15 1.6485-0.34187c0.93599-0.19425 1.0562 0.15659 1.8171-0.31825 0.2714-0.16936 0.42088-1.0666 0.32214-1.2339-0.48039-0.81378-0.68773-0.48672-1.5983-0.7468l-1.5517-0.44323c-0.88369-0.25241-1.7554 0.39781-1.8931 1.0632l-0.14104 0.68193c-0.13759 0.66538 0.46027 1.5331 1.3963 1.3389z" fill="#f4e3d7"/>
  <path d="m129.34 169.94-1.3694 0.97931c-0.77749 0.55617-1.0293 0.28392-1.5332 1.0259-0.17973 0.26465 0.0464 1.1457 0.20436 1.2588 0.76845 0.54999 0.82581 0.16702 1.7637 0.0367l1.5984-0.22213c0.91028-0.12651 1.4446-1.0737 1.3014-1.7379l-0.14679-0.68072c-0.14323-0.66419-1.0409-1.216-1.8185-0.65988z" fill="#f4e3d7"/>
  <g stroke="#000" stroke-linecap="round" stroke-linejoin="round" stroke-width=".88048">
   <path d="m125.54 165.91 5.3226 0.98131c3.0223 0.55721 5.0928-0.65827 5.896 0.98315 0.25811 0.52755 0.2687 1.6679 0.10374 1.9872-0.95813 1.8543-2.1623 0.81434-5.3218 1.0268l-5.3841 0.36211c-3.0663 0.20622-5.6517-1.1016-5.7847-2.2539l-0.1363-1.1809c-0.13298-1.1522 2.2823-2.463 5.3046-1.9058z" fill="#e9c6af"/>
   <path d="m121.64 167.29c1.8078-0.10028 3.1366 1.0484 3.0349 1.5753-0.10168 0.52691-1.7522 1.0763-3.4031 0.33287-1.7005-0.76569-3.1366-1.0484-3.0349-1.5753s1.5163-0.22821 3.4031-0.33288z"/>
   <path d="m121.25 163.64c1.8025-0.17167 3.3049 0.12224 3.3558 0.65647s-1.7195 2.3598-3.1715 1.2781c-1.5297-1.1395-3.3049-0.12225-3.3558-0.65648-0.0509-0.53422 1.369-1.1065 3.1715-1.2781z"/>
  </g>
  <path d="m126.98 170.38 1.6435-0.3648c0.93323-0.20716 1.0583 0.14186 1.8125-0.3435 0.26902-0.17312 0.406-1.0724 0.30493-1.2383-0.49167-0.80701-0.69443-0.47709-1.6085-0.72447l-1.5577-0.42159c-0.88712-0.24009-1.7498 0.42218-1.8781 1.0894l-0.13153 0.68383c-0.12832 0.66723 0.48156 1.5265 1.4148 1.3194z" fill="#f4e3d7"/>
 </g>
 <g transform="translate(-28.475 -34.64)">
  <g fill="#917c6f" stroke="#000" stroke-width=".99213">
   <path d="m101.24 95.32c7.2991-0.04235 14.369 3.987 21.64 3.3491 3.9767-0.34887 7.3454-3.7374 11.335-3.8643 5.7502-0.18289 11.923-0.8813 16.657 4.5197 2.3672 2.7008-1.6572 4.32-7.0625 5.4596-5.2014 1.0966-11.021-1.1467-16.55-1.4779-8.4045-0.50345-16.93-2.0867-25.247-0.77285-6.0367 0.95366-11.843 3.355-17.261 6.1829-8.4072 4.3882-13.705 16.256-23.186 16.488-6.7219 0.16418-15.402-6.7297-16.99-10.873-3.4704-9.0537 8.7233-9.8844 12.772-6.9154 14.797 6.9767 17.686-6.8784 22.251-8.4885 6.8965-2.4323 14.327-3.5643 21.64-3.6067z"/>
   <path d="m71.876 103.95s1.5016-6.5716 1.8033-9.9184c0.30076-3.3355-0.34618-5.8451 1e-6 -10.047 8.122 3.3287 10.923 1.1523 16.319 0.44737 5.0304-0.65722 9.3938-4.697 14.596-4.3117 4.0206 3.7042 7.169 6.699 10.82 9.532 7.4888 5.8106 5.7012 5.7414 9.2744 7.471 3.4877 1.6882 11.335 2.5762 11.335 2.5762" stroke-linecap="round"/>
   <path d="m59.568 56.78c-2.3397-0.3581-6.3518 4.6352-11.112 12.023 0.19784 3.3236 1.3829 4.8703 4.0076 3.8255 3.7893-2.2776 7.8702-5.2845 10.748-5.2828"/>
   <path d="m72.138 53.501c-8.8625-0.32324-8.1328-0.4505-14.118 0.45542-3.2526 3.8206-3.4882 1.9295-1.3662 4.8274 1.1877 1.6219-0.49567 6.0016 0.13607 7.7614s1.8055 3.9744 3.6398 2.8015c4.4999-2.8774 9.7043-5.3057 9.7043-4.1871"/>
   <g stroke-linecap="round">
    <path d="m63.94 54.594c3.4055-1.373 5.982-6.9599 9.1654-5.0343 2.9575 1.7888 16.791 4.0384 17.21 10.742 0.15714 6.8012-3.7802 9.7847-6.0547 10.693l-8.8031 3.515c-2.3219-1.5813-3.9487-3.6575-9.9086-5.1971-4.1356-4.1665-2.3889-10.021 1.6696-10.711"/>
    <path d="m82.825 58.222c3.8015-2.1237 10.078-0.07141 12.366 0.64405 3.1786 0.99404 2.5172 4.4083 3.6067 6.6981 1.6431 3.4536 2.4529 7.3057 4.4068 10.593 2.4016 4.0412 8.8481 10.982 8.8481 10.982s-5.6-2.926-10.561-3.2898c-7.3397-0.53821-13.059 3.8022-18.905 7.1498-3.3569 1.9219-9.035 7.2824-9.035 7.2824s-0.13008-11.117-1.1593-17.389c-0.26236-1.5989 0.71641-4.5024-0.62574-5.41-4.7174-3.1903-2.7589-4.9369-1.6357-7.0846 0.87489-1.6728 3.6433-2.171 5.2591-2.1014 3.141 0.13527 5.2774-1.4207 5.2774-1.4207"/>
    <path d="m75.225 108.46c-0.76774 0.56746 1.8119-4.7074-0.36001-7.1213-1.9029-2.1148-2.4487-5.7155-2.9949-4.6344-1.1696 2.3152-4.0564 4.5417-5.0783 9.6947-0.71661 3.6134-7.0241 9.6608-12.048 7.2134"/>
   </g>
  </g>
  <path d="m83.598 97.509c2.6403-0.68116 5.4763-3.9835 8.1151-1.0305 3.3946 3.7988-3.9989 3.1839-12.237 5.7965-6.249 1.9818-8.6876 6.3426-10.434 5.2812-1.6737-1.0174 1.1401-3.9493 2.5762-5.2812 3.1509-2.9225 7.8181-3.6924 11.979-4.766z"/>
  <path d="m112.05 87.14s-5.6-2.926-10.561-3.2898c-7.3397-0.53821-13.059 3.8022-18.905 7.1498" fill="none" stroke="#917c6f" stroke-dasharray="3.96850405, 7.93700809" stroke-dashoffset="4.9606" stroke-linecap="round" stroke-width="1.9843"/>
 </g>
 <g transform="translate(-28.475 -34.64)">
  <path d="m95.092 101.29s-2.5074-0.36958-3.3011-1.3377c-4.0468-4.9363-4.6938-11.206-8.6685-15.653-2.4105-2.697-8.2263-3.5459-13.861-2.2744-7.022 1.5845-8.9681 10.158-4.8171 15.56 2.3029 2.9968 5.0163 4.9266 6.558 8.0153 1.368 2.7408 2.0572 6.0923 2.0572 6.0923" fill="#e9c6af" stroke="#000" stroke-width=".99213"/>
  <path d="m76.567 110.63c4.7287 0.14994 2.5176-8.3413-0.86774-9.5306 1.5079-0.57476 2.551-0.56526 3.4439-0.13015-0.24898-1.3028-0.44548-3.6736-1.682-4.8323 1.9469-0.0781 2.1351 0.14006 2.9701 0.58154-0.21788-2.5278-1.4546-6.6941-5.6677-6.8914 1.2045-1.08 2.824-2.9453 5.3456-1.3525-0.24085-1.616-0.81439-5.0829-6.6337-3.7355-0.70744 0.10496-4.0356 1.5161-5.0236 5.41-0.95823-1.1944-1.1433-3.0975 0.90167-5.6032-3.3612 0.24956-4.434 3.064-4.8948 5.3456-1.1257 3.5422 1.042 6.6374 3.1322 8.4596 3.6929 3.2193 9.0898 11.937 8.976 12.279z" fill="url(#radialGradient1386)"/>
  <path d="m76.385 110.26c4.7287 0.14994 2.5176-8.3413-0.86774-9.5306 1.5079-0.57476 2.551-0.56526 3.4439-0.13015-0.24898-1.3028-0.44548-3.6736-1.682-4.8323 1.9469-0.0781 2.1351 0.14006 2.9701 0.58154-0.21788-2.5278-1.4546-6.6941-5.6677-6.8914 1.2045-1.08 2.824-2.9453 5.3456-1.3525-0.24085-1.616-0.81439-5.0829-6.6337-3.7355-0.70744 0.10496-4.0356 1.5161-5.0236 5.41-0.95823-1.1944-1.1433-3.0975 0.90167-5.6033-3.3612 0.24957-4.434 3.064-4.8948 5.3456" fill="none" stroke="#000" stroke-linecap="round" stroke-width=".99213"/>
 </g>
 <g transform="translate(-28.475 -34.64)">
  <path d="m115.75 84.126c1.8677-2.0318 1.4838-5.2172-0.80806-9.956-0.0369 0.77588-1.9823 2.541-2.7046 2.9742 0.84846-2.1004 1.7592-4.7134-0.78989-5.4743-0.15671 3.8423-1.6414 4.5249-2.8588 1.2425-2.3269 1.9877 0.31456 5.8296 0.33057 6.4342" fill="url(#linearGradient1505)"/>
  <path d="m88.224 100.04c-2.4042-7.5731-5.3379-13.952-7.6012-15.15 2.3971 4.2761 1.5011 4.854 1.5764 6.4767-1.0736-1.0051-1.8791-1.2056-2.6066-1.1721 3.0968 3.6972 2.3901 6.6577 2.9474 8.1196-0.49924 1.4524-0.9239 1.427-2.4673 0.26888 1.6026 5.1906 0.79665 5.0479 2.3993 4.9834" fill="url(#linearGradient1515)"/>
  <path d="m172.67 198.37s2.9217-2.5186 3.7504-4.2038c0.79983-1.6265 1.1118-2.6809 1.0034-5.3442-2.9955 4.2191-4.2864 0.46406-4.6073-3.9455-2.1035 3.7717 0.71269 8.5926 0.0808 9.3876-0.98187 1.3342 0.12125-2.4571-2.0984-2.4951 1.6767 3.1435-0.59704 4.6799-0.71439 6.1822z" fill="url(#linearGradient997)"/>
  <path d="m179.97 189.08s-0.10134-2.3904-0.23362-3.5784c-0.18974-1.7041-3.0256-2.8369-0.80215-5.0809-5.1072 1.4149 1.0317 6.7734-3.1245 3.9267-0.77274 1.8604-0.21106 2.4959 0.44366 3.4547 0.37763 0.55305 1.7628 0.96371 1.7628 0.96371z" fill="url(#linearGradient1001)"/>
  <path d="m162.86 210.83 4.1745-6.0985c1.0282-1.6244 1.7093-4.1517 1.7241-7.4102 2.5457 1.8608-0.97664 8.2869 2.6776 4.1861-0.23299 4.44-4.6101 2.4507-1.2168 4.8842-3.2412-0.46605-4.4067 4.4746-4.4067 4.4746z" fill="url(#linearGradient1005)"/>
 </g>
 <g transform="translate(8.7 7.7318)" display="none">
  <path transform="translate(-37.175 -42.372)" d="m66.068 154.39c-3.2989 3.7004-5.2079 7.9823-4.7169 9.8701 1.4439-2.9812 1.9324-3.4818 3.1079-3.1502-1.9555 3.1654-0.82754 7.113 0.76639 8.6925-1.0141-2.6901 0.24716-7.419 1.5217-6.5248 0.36555 2.7486 2.0189 6.1406 4.8983 6.597-1.6973-2.4109-2.4753-5.6436-1.2967-6.2313 2.6408-1.3169 1.9468 4.8357 6.6679 1.5002-4.278 0.1274-2.1275-3.569-0.26644-4.4109 1.3865-0.59704 1.2831-1.9403 4.4498 0.84125-1.5206-4.2499 2.1512-1.7356 4.0104-0.26557-0.55912-1.828-2.1458-3.6333-3.9926-3.9774-2.3827-0.44383-6.5324 2.8754-6.6533 2.9326-4.0126 1.978-3.9546-2.2578 2.6206-6.1336z" display="inline" enable-background="new" fill="url(#linearGradient962)"/>
  <path transform="translate(-37.175 -42.372)" d="m59.575 186.65s-2.2115 3.1464-2.9626 4.9592c-1.0844 2.6171-0.92592 3.348-5.0236 7.3422 3.4547-0.37583 4.1855-3.4624 5.5817-0.95368-3.9966 0.9595-5.1062 2.6884-3.1273 5.6628-0.47134-3.2516 4.673-3.9194 2.0278 3.3116 4.9398-0.39335 3.6714-6.3018 4.5364-7.2662 0.31847 0.17418 1.9504 0.88946 1.5328 4.2971 0 0 2.1452-2.4095 2.6959-3.887 0.53565-1.4373 0.4918-4.5752 0.4918-4.5752 1.2361 1.089 0.75982 0.53562 1.4703 2.7202 1.1805-4.0252-2.6005-7.739 2.6309-10.709z" display="inline" enable-background="new" fill="url(#linearGradient973)"/>
  <path transform="translate(-37.175 -42.372)" d="m112.46 190.67c-0.98553 4.1602 3.8293 7.7676 2.0532 9.1331-3.1423-4.737-3.2403-2.1362-2.8894-1.1596 0.80042 2.2276 0.75399 6.7416-0.2024 7.6244-0.0456-4.8554-1.9735-1.9259-1.8463 0.15663 0.16175 2.6473 1.0762 3.4194-1.2027 5.8592-0.0267-1.3972-0.61554-3.5174-2.6516-3.1888 0.2217 1.9296-0.38137 5.1704-3.4793 8.122 0.90382-4.5235-0.27107-8.1074-1.5524-9.1689-1.515 1.0424 0.69112 3.9358-1.2062 6.0896-0.10717-2.4827-3.237-7.9479-3.1488-2.168-1.9798-1.378-2.4062-2.9777-2.2024-4.7267-1.7339-0.44607-3.7506 1.87-4.4187 4.3757-1.6426-2.2627-1.9067-5.3899 1.6683-6.2328-0.55668-2.1127-3.0704-2.8081-4.3082 0.94935-1.0501-3.293-1.5391-7.5395 2.238-7.6092z" display="inline" enable-background="new" fill="url(#linearGradient983)"/>
  <path transform="translate(-37.175 -42.372)" d="m90.558 112.08c-2.0776 1.4105-1.3803 6.1154-3.8372 6.2343 0.65956 1.5255 2.4017 1.8367 3.4479 1.2058-0.46657 2.1863-2.5215 1.9445-5.1924 0.91694 2.1623 3.5554 5.647 5.176 5.647 5.176s-1.6647 0.3883-1.6735 2.4173c0 0 1.2716-1.7386 6.3775-0.6606-1.634 0.75378-1.2446 1.4893-1.0914 2.2269-0.56924-0.0957 1.4665-1.449 5.4773-1.6113 2.0239-0.0819 4.4293-1.0986 5.8442-2.7147 1.1908-1.3601 1.8339-2.3829 1.6145-5.1772 2.6696-2.1751-8.426 7.6903-13.55 2.0225s-1.4848-11.141 1.2229-12.004c-1.9468 0.45822-2.9864 1.0847-4.2874 1.968z" display="inline" enable-background="new" fill="url(#linearGradient1015)"/>
 </g>
 <g transform="translate(-28.475 -34.64)">
  <path d="m92.509 96.69c0.4936 2.8692-4.6005 3.7199-7.3659 4.5385-2.8926 0.85624-7.9181 1.9162-11.523 3.7344-1.8787 0.94749-5.1346 3.6719-5.1346 3.6719l3.2881 7.5313 10.93-8.5618 14.209-6.0115z" fill="#917c6f"/>
  <path d="m90.858 97.846c2.3477 0.4891-3.2838 2.7305-10.47 4.6344-5.589 1.4807-8.7413 2.712-10.799 4.5994" fill="none" stroke="#000" stroke-dashoffset="5.2583" stroke-linecap="round" stroke-width=".99213"/>
 </g>
</svg>
